REM DIRINDEX 1\8,1\2\11,1\3\12,1\3\14,1\5\15,1\5\16,1\6\17,1\6\18,1\4\19,1\4\20,1\4\21,1\4\22,1\7\23,1\7\24,1\7\25,1\2\9\26,1\2\9\27,1\2\10\28,1\2\10\29,1\2\10\30,1\2\10\31,1\2\10\32,1\3\13\33,1\3\13\34,1\3\13\35
REM DIRNAME folder01,folder02,folder03,folder04,folder05,folder06,folder07,folder08,folder09,folder10,folder11,folder12,folder13,folder14,folder15,folder16,folder17,folder18,folder19,folder20,folder21,folder22,folder23,folder24,folder25,folder26,folder27,folder28,folder29,folder30,folder31,folder32,folder33,folder34,folder35
TITLE ""
FILE "162 162_例文UNIT7_SET4.mp3" MP3
  TRACK 01 AUDIO
    TITLE "22:cjc123_4429"
    INDEX 01 00:00:00
  TRACK 02 AUDIO
    TITLE "0:"
    INDEX 01 00:02:38
  TRACK 03 AUDIO
    TITLE "19:cjc123_4430"
    INDEX 01 00:03:17
  TRACK 04 AUDIO
    TITLE "0:"
    INDEX 01 00:08:44
  TRACK 05 AUDIO
    TITLE "20:cjc123_4431"
    INDEX 01 00:09:06
  TRACK 06 AUDIO
    TITLE "0:"
    INDEX 01 00:14:29
  TRACK 07 AUDIO
    TITLE "21:cjc123_4432"
    INDEX 01 00:14:62
  TRACK 08 AUDIO
    TITLE "0:"
    INDEX 01 00:20:14
  TRACK 09 AUDIO
    TITLE "19:cjc123_4433"
    INDEX 01 00:20:67
  TRACK 10 AUDIO
    TITLE "0:"
    INDEX 01 00:25:11
  TRACK 11 AUDIO
    TITLE "20:cjc123_4434"
    INDEX 01 00:26:05
  TRACK 12 AUDIO
    TITLE "0:"
    INDEX 01 00:30:57
  TRACK 13 AUDIO
    TITLE "21:cjc123_4435"
    INDEX 01 00:31:18
  TRACK 14 AUDIO
    TITLE "0:"
    INDEX 01 00:35:37
  TRACK 15 AUDIO
    TITLE "19:cjc123_4436"
    INDEX 01 00:36:09
  TRACK 16 AUDIO
    TITLE "0:"
    INDEX 01 00:40:28
  TRACK 17 AUDIO
    TITLE "20:cjc123_4437"
    INDEX 01 00:40:64
  TRACK 18 AUDIO
    TITLE "0:"
    INDEX 01 00:44:73
  TRACK 19 AUDIO
    TITLE "21:cjc123_4438"
    INDEX 01 00:45:30
  TRACK 20 AUDIO
    TITLE "0:"
    INDEX 01 00:49:47
  TRACK 21 AUDIO
    TITLE "19:cjc123_4439"
    INDEX 01 00:50:25
  TRACK 22 AUDIO
    TITLE "0:"
    INDEX 01 00:55:28
  TRACK 23 AUDIO
    TITLE "20:cjc123_4440"
    INDEX 01 00:56:08
  TRACK 24 AUDIO
    TITLE "0:"
    INDEX 01 01:01:62
  TRACK 25 AUDIO
    TITLE "21:cjc123_4441"
    INDEX 01 01:02:20
  TRACK 26 AUDIO
    TITLE "0:"
    INDEX 01 01:07:25
  TRACK 27 AUDIO
    TITLE "19:cjc123_4442"
    INDEX 01 01:08:15
  TRACK 28 AUDIO
    TITLE "0:"
    INDEX 01 01:13:22
  TRACK 29 AUDIO
    TITLE "20:cjc123_4443"
    INDEX 01 01:13:57
  TRACK 30 AUDIO
    TITLE "0:"
    INDEX 01 01:18:23
  TRACK 31 AUDIO
    TITLE "21:cjc123_4444"
    INDEX 01 01:18:51
  TRACK 32 AUDIO
    TITLE "0:"
    INDEX 01 01:23:62
  TRACK 33 AUDIO
    TITLE "19:cjc123_4445"
    INDEX 01 01:24:28
  TRACK 34 AUDIO
    TITLE "0:"
    INDEX 01 01:28:27
  TRACK 35 AUDIO
    TITLE "20:cjc123_4446"
    INDEX 01 01:28:61
  TRACK 36 AUDIO
    TITLE "0:"
    INDEX 01 01:31:55
  TRACK 37 AUDIO
    TITLE "21:cjc123_4447"
    INDEX 01 01:32:12
  TRACK 38 AUDIO
    TITLE "0:"
    INDEX 01 01:36:11
  TRACK 39 AUDIO
    TITLE "19:cjc123_4448"
    INDEX 01 01:37:07
  TRACK 40 AUDIO
    TITLE "0:"
    INDEX 01 01:41:14
  TRACK 41 AUDIO
    TITLE "20:cjc123_4449"
    INDEX 01 01:41:48
  TRACK 42 AUDIO
    TITLE "0:"
    INDEX 01 01:45:49
  TRACK 43 AUDIO
    TITLE "21:cjc123_4450"
    INDEX 01 01:46:08
  TRACK 44 AUDIO
    TITLE "0:"
    INDEX 01 01:50:15
  TRACK 45 AUDIO
    TITLE "19:cjc123_4451"
    INDEX 01 01:51:03
  TRACK 46 AUDIO
    TITLE "0:"
    INDEX 01 01:57:66
  TRACK 47 AUDIO
    TITLE "20:cjc123_4452"
    INDEX 01 01:58:23
  TRACK 48 AUDIO
    TITLE "0:"
    INDEX 01 02:05:40
  TRACK 49 AUDIO
    TITLE "21:cjc123_4453"
    INDEX 01 02:05:60
  TRACK 50 AUDIO
    TITLE "0:"
    INDEX 01 02:12:50
  TRACK 51 AUDIO
    TITLE "19:cjc123_4454"
    INDEX 01 02:13:20
  TRACK 52 AUDIO
    TITLE "0:"
    INDEX 01 02:17:06
  TRACK 53 AUDIO
    TITLE "20:cjc123_4455"
    INDEX 01 02:17:53
  TRACK 54 AUDIO
    TITLE "0:"
    INDEX 01 02:22:02
  TRACK 55 AUDIO
    TITLE "21:cjc123_4456"
    INDEX 01 02:22:35
  TRACK 56 AUDIO
    TITLE "0:"
    INDEX 01 02:26:19
  TRACK 57 AUDIO
    TITLE "19:cjc123_4457"
    INDEX 01 02:26:72
  TRACK 58 AUDIO
    TITLE "0:"
    INDEX 01 02:30:40
  TRACK 59 AUDIO
    TITLE "20:cjc123_4458"
    INDEX 01 02:31:26
  TRACK 60 AUDIO
    TITLE "0:"
    INDEX 01 02:35:08
  TRACK 61 AUDIO
    TITLE "21:cjc123_4459"
    INDEX 01 02:35:36
  TRACK 62 AUDIO
    TITLE "0:"
    INDEX 01 02:39:02
  TRACK 63 AUDIO
    TITLE "19:cjc123_4460"
    INDEX 01 02:39:51
  TRACK 64 AUDIO
    TITLE "0:"
    INDEX 01 02:45:38
  TRACK 65 AUDIO
    TITLE "20:cjc123_4461"
    INDEX 01 02:46:10
  TRACK 66 AUDIO
    TITLE "0:"
    INDEX 01 02:50:74
  TRACK 67 AUDIO
    TITLE "21:cjc123_4462"
    INDEX 01 02:51:33
  TRACK 68 AUDIO
    TITLE "0:"
    INDEX 01 02:57:14
  TRACK 69 AUDIO
    TITLE "19:cjc123_4463"
    INDEX 01 02:58:09
  TRACK 70 AUDIO
    TITLE "0:"
    INDEX 01 03:02:74
  TRACK 71 AUDIO
    TITLE "20:cjc123_4464"
    INDEX 01 03:03:28
  TRACK 72 AUDIO
    TITLE "0:"
    INDEX 01 03:08:37
  TRACK 73 AUDIO
    TITLE "21:cjc123_4465"
    INDEX 01 03:08:70
  TRACK 74 AUDIO
    TITLE "0:"
    INDEX 01 03:13:58
  TRACK 75 AUDIO
    TITLE "19:cjc123_4466"
    INDEX 01 03:14:32
  TRACK 76 AUDIO
    TITLE "0:"
    INDEX 01 03:20:24
  TRACK 77 AUDIO
    TITLE "20:cjc123_4467"
    INDEX 01 03:20:56
  TRACK 78 AUDIO
    TITLE "0:"
    INDEX 01 03:25:55
  TRACK 79 AUDIO
    TITLE "21:cjc123_4468"
    INDEX 01 03:26:07
  TRACK 80 AUDIO
    TITLE "0:"
    INDEX 01 03:32:00
  TRACK 81 AUDIO
    TITLE "19:cjc123_4469"
    INDEX 01 03:32:63
  TRACK 82 AUDIO
    TITLE "0:"
    INDEX 01 03:37:25
  TRACK 83 AUDIO
    TITLE "20:cjc123_4470"
    INDEX 01 03:37:45
  TRACK 84 AUDIO
    TITLE "0:"
    INDEX 01 03:42:48
  TRACK 85 AUDIO
    TITLE "21:cjc123_4471"
    INDEX 01 03:43:08
  TRACK 86 AUDIO
    TITLE "0:"
    INDEX 01 03:47:47
  TRACK 87 AUDIO
    TITLE "19:cjc123_4472"
    INDEX 01 03:48:33
  TRACK 88 AUDIO
    TITLE "0:"
    INDEX 01 03:53:61
  TRACK 89 AUDIO
    TITLE "20:cjc123_4473"
    INDEX 01 03:54:19
  TRACK 90 AUDIO
    TITLE "0:"
    INDEX 01 03:59:68
  TRACK 91 AUDIO
    TITLE "21:cjc123_4474"
    INDEX 01 04:00:24
  TRACK 92 AUDIO
    TITLE "0:"
    INDEX 01 04:05:55
